<svg width="15" height="16" viewBox="0 0 15 16" xmlns="http://www.w3.org/2000/svg">
    <path d="M.787 14.5c0 .828.654 1.5 1.46 1.5h10.706c.806 0 1.46-.672 1.46-1.5V6H.787v8.5zm9.733-6.125c0-.206.164-.375.365-.375h1.217c.2 0 .365.169.365.375v1.25a.371.371 0 0 1-.365.375h-1.217a.371.371 0 0 1-.365-.375v-1.25zm0 4c0-.206.164-.375.365-.375h1.217c.2 0 .365.169.365.375v1.25a.371.371 0 0 1-.365.375h-1.217a.371.371 0 0 1-.365-.375v-1.25zm-3.893-4c0-.206.164-.375.365-.375h1.216c.201 0 .365.169.365.375v1.25a.371.371 0 0 1-.365.375H6.992a.371.371 0 0 1-.365-.375v-1.25zm0 4c0-.206.164-.375.365-.375h1.216c.201 0 .365.169.365.375v1.25a.371.371 0 0 1-.365.375H6.992a.371.371 0 0 1-.365-.375v-1.25zm-3.894-4c0-.206.165-.375.365-.375h1.217c.2 0 .365.169.365.375v1.25a.371.371 0 0 1-.365.375H3.098a.371.371 0 0 1-.365-.375v-1.25zm0 4c0-.206.165-.375.365-.375h1.217c.2 0 .365.169.365.375v1.25a.371.371 0 0 1-.365.375H3.098a.371.371 0 0 1-.365-.375v-1.25zM12.953 2h-1.46V.5c0-.275-.219-.5-.486-.5h-.974a.495.495 0 0 0-.486.5V2H5.653V.5c0-.275-.219-.5-.486-.5h-.974a.495.495 0 0 0-.486.5V2h-1.46c-.806 0-1.46.672-1.46 1.5V5h13.626V3.5c0-.828-.654-1.5-1.46-1.5z" fill="#4B4B4B" fill-rule="nonzero"/>
</svg>
