<svg width="12" height="14" viewBox="0 0 12 14" xmlns="http://www.w3.org/2000/svg">
    <path d="M.857 12.688c0 .724.576 1.312 1.286 1.312h7.714c.71 0 1.286-.588 1.286-1.312V3.5H.857v9.188zm7.286-7c0-.242.192-.438.428-.438.237 0 .429.196.429.438v6.125a.433.433 0 0 1-.429.437.433.433 0 0 1-.428-.437V5.688zm-2.572 0c0-.242.192-.438.429-.438s.429.196.429.438v6.125A.433.433 0 0 1 6 12.25a.433.433 0 0 1-.429-.437V5.688zM3 5.688c0-.242.192-.438.429-.438.236 0 .428.196.428.438v6.125a.433.433 0 0 1-.428.437.433.433 0 0 1-.429-.437V5.688zM11.571.875H8.357L8.105.364A.642.642 0 0 0 7.53 0H4.468a.634.634 0 0 0-.573.364l-.252.511H.429A.433.433 0 0 0 0 1.313v.875c0 .241.192.437.429.437H11.57A.433.433 0 0 0 12 2.188v-.875a.433.433 0 0 0-.429-.438z" fill="#FFF" fill-rule="nonzero"/>
</svg>
